<svg width="122" height="133" viewBox="0 0 122 133" fill="none" xmlns="http://www.w3.org/2000/svg">
<path d="M3.237 0.809994H14.424V72.981H34.917V81H3.237V0.809994ZM42.5856 0.809994H73.6716V9.126H53.7726V35.658H69.9096V43.578H53.7726V72.981H73.8696V81H42.5856V0.809994ZM101.81 81.891C95.0781 81.891 89.9301 79.812 86.3661 75.654C82.8681 71.496 80.9211 65.787 80.5251 58.527L90.4251 55.854C90.7551 61.002 91.7451 65.16 93.3951 68.328C95.1111 71.496 97.9161 73.08 101.81 73.08C104.714 73.08 106.892 72.288 108.344 70.704C109.862 69.054 110.621 66.711 110.621 63.675C110.621 60.375 109.928 57.636 108.542 55.458C107.156 53.28 104.945 50.871 101.909 48.231L88.4451 36.351C85.7391 33.975 83.7591 31.434 82.5051 28.728C81.3171 25.956 80.7231 22.59 80.7231 18.63C80.7231 12.756 82.4061 8.202 85.7721 4.968C89.1381 1.734 93.7251 0.116997 99.5331 0.116997C105.869 0.116997 110.654 1.8 113.888 5.166C117.122 8.532 119.069 13.746 119.729 20.808L110.225 23.382C109.895 18.696 108.971 15.099 107.453 12.591C106.001 10.017 103.361 8.73 99.5331 8.73C96.6951 8.73 94.5171 9.489 92.9991 11.007C91.4811 12.459 90.7221 14.637 90.7221 17.541C90.7221 19.917 91.1181 21.93 91.9101 23.58C92.7021 25.164 94.0551 26.781 95.9691 28.431L109.532 40.311C113.03 43.413 115.802 46.779 117.848 50.409C119.96 54.039 121.016 58.164 121.016 62.784C121.016 68.658 119.234 73.311 115.67 76.743C112.106 80.175 107.486 81.891 101.81 81.891ZM0.730469 132V104.422H9.1875C10.3854 104.422 11.5573 104.539 12.7031 104.773C13.849 105.008 14.8646 105.405 15.75 105.965C16.6484 106.525 17.3711 107.267 17.918 108.191C18.4648 109.116 18.7383 110.262 18.7383 111.629C18.7383 112.514 18.6211 113.315 18.3867 114.031C18.1523 114.734 17.8138 115.372 17.3711 115.945C16.9414 116.505 16.4141 116.993 15.7891 117.41C15.1641 117.827 14.4609 118.185 13.6797 118.484C14.7214 118.732 15.5417 119.051 16.1406 119.441C16.7526 119.819 17.2279 120.288 17.5664 120.848C17.918 121.395 18.1654 122.033 18.3086 122.762C18.4648 123.478 18.6081 124.298 18.7383 125.223C18.8685 126.134 19.0247 127.156 19.207 128.289C19.3893 129.409 19.6888 130.646 20.1055 132H16.0039C15.7305 130.581 15.5156 129.305 15.3594 128.172C15.2161 127.026 15.0664 126.017 14.9102 125.145C14.7539 124.259 14.5651 123.504 14.3438 122.879C14.1354 122.241 13.8294 121.72 13.4258 121.316C13.0221 120.913 12.5013 120.62 11.8633 120.438C11.2253 120.242 10.4049 120.145 9.40234 120.145H4.55859V132H0.730469ZM4.53906 117.254H9.07031C9.86458 117.254 10.6068 117.163 11.2969 116.98C11.987 116.798 12.5859 116.505 13.0938 116.102C13.6146 115.698 14.0182 115.171 14.3047 114.52C14.6042 113.855 14.7539 113.048 14.7539 112.098C14.7539 111.108 14.5651 110.327 14.1875 109.754C13.8099 109.181 13.3216 108.751 12.7227 108.465C12.1237 108.165 11.4531 107.983 10.7109 107.918C9.98177 107.84 9.26562 107.801 8.5625 107.801H4.53906V117.254ZM41.8633 122C41.8633 123.523 41.6615 124.923 41.2578 126.199C40.8672 127.462 40.2812 128.556 39.5 129.48C38.7318 130.392 37.7747 131.102 36.6289 131.609C35.4831 132.117 34.1615 132.371 32.6641 132.371C31.2448 132.371 29.9753 132.124 28.8555 131.629C27.7357 131.134 26.7917 130.438 26.0234 129.539C25.2552 128.641 24.6628 127.566 24.2461 126.316C23.8424 125.066 23.6406 123.686 23.6406 122.176C23.6406 120.743 23.8164 119.396 24.168 118.133C24.5195 116.857 25.0664 115.743 25.8086 114.793C26.5638 113.829 27.5273 113.068 28.6992 112.508C29.8711 111.948 31.2708 111.668 32.8984 111.668C34.5 111.668 35.8672 111.961 37 112.547C38.1328 113.12 39.0573 113.888 39.7734 114.852C40.5026 115.815 41.0299 116.922 41.3555 118.172C41.694 119.409 41.8633 120.685 41.8633 122ZM27.2734 122.156C27.2734 123.237 27.3776 124.227 27.5859 125.125C27.7943 126.023 28.1133 126.798 28.543 127.449C28.9857 128.1 29.5521 128.608 30.2422 128.973C30.9323 129.337 31.7656 129.52 32.7422 129.52C33.5234 129.52 34.2461 129.383 34.9102 129.109C35.5872 128.823 36.1667 128.38 36.6484 127.781C37.1432 127.169 37.5273 126.395 37.8008 125.457C38.0742 124.52 38.2109 123.393 38.2109 122.078C38.2109 119.643 37.7552 117.775 36.8438 116.473C35.9323 115.171 34.6042 114.52 32.8594 114.52C32.1302 114.52 31.4271 114.663 30.75 114.949C30.0859 115.223 29.4935 115.672 28.9727 116.297C28.4518 116.909 28.0352 117.697 27.7227 118.66C27.4232 119.624 27.2734 120.789 27.2734 122.156ZM60.6328 130.301C59.6302 131.004 58.556 131.525 57.4102 131.863C56.2773 132.202 55.1901 132.371 54.1484 132.371C53.0677 132.371 52.0195 132.169 51.0039 131.766C49.9883 131.362 49.0898 130.73 48.3086 129.871C47.5273 129.012 46.8958 127.918 46.4141 126.59C45.9453 125.262 45.7109 123.667 45.7109 121.805C45.7109 120.073 45.9714 118.576 46.4922 117.312C47.013 116.036 47.6901 114.982 48.5234 114.148C49.3568 113.315 50.2943 112.697 51.3359 112.293C52.3906 111.876 53.4453 111.668 54.5 111.668C55.2422 111.668 55.9714 111.766 56.6875 111.961C57.4167 112.156 58.0872 112.469 58.6992 112.898C59.3112 113.328 59.8451 113.888 60.3008 114.578C60.7565 115.268 61.0885 116.108 61.2969 117.098L58.1914 117.605C58.0482 117.02 57.8529 116.531 57.6055 116.141C57.3581 115.737 57.0716 115.418 56.7461 115.184C56.4206 114.936 56.069 114.767 55.6914 114.676C55.3268 114.572 54.9492 114.52 54.5586 114.52C53.9336 114.52 53.3086 114.656 52.6836 114.93C52.0716 115.203 51.5117 115.633 51.0039 116.219C50.5091 116.805 50.1055 117.547 49.793 118.445C49.4805 119.344 49.3242 120.418 49.3242 121.668C49.3242 122.905 49.4219 124.012 49.6172 124.988C49.8125 125.952 50.1185 126.772 50.5352 127.449C50.9648 128.113 51.5052 128.628 52.1562 128.992C52.8073 129.344 53.582 129.52 54.4805 129.52C55.0273 129.52 55.5417 129.474 56.0234 129.383C56.5182 129.279 56.974 129.148 57.3906 128.992C57.8073 128.823 58.1914 128.634 58.543 128.426C58.8945 128.217 59.2201 128.003 59.5195 127.781L60.6328 130.301ZM65.6523 132V104.422H69.3438V110.75L69.3828 114.52C70.2031 113.621 71.1211 112.924 72.1367 112.43C73.1523 111.922 74.2005 111.668 75.2812 111.668C77.612 111.668 79.3307 112.339 80.4375 113.68C81.5573 115.008 82.1172 116.889 82.1172 119.324V132H78.4844V119.52C78.4844 118.934 78.4323 118.348 78.3281 117.762C78.224 117.163 78.0221 116.629 77.7227 116.16C77.4232 115.678 77.0065 115.288 76.4727 114.988C75.9518 114.676 75.2682 114.52 74.4219 114.52C73.8359 114.52 73.3151 114.585 72.8594 114.715C72.4036 114.845 72.0065 115.021 71.668 115.242C71.3294 115.451 71.0365 115.685 70.7891 115.945C70.5547 116.206 70.3594 116.46 70.2031 116.707C69.8646 117.267 69.6367 117.964 69.5195 118.797C69.4023 119.617 69.3438 120.457 69.3438 121.316V132H65.6523ZM103.074 130.379C102.658 130.626 102.215 130.874 101.746 131.121C101.29 131.355 100.776 131.564 100.203 131.746C99.6302 131.928 98.9857 132.078 98.2695 132.195C97.5664 132.312 96.7656 132.371 95.8672 132.371C94.5 132.371 93.263 132.143 92.1562 131.688C91.0625 131.232 90.125 130.568 89.3438 129.695C88.5755 128.81 87.9831 127.729 87.5664 126.453C87.1497 125.164 86.9414 123.693 86.9414 122.039C86.9414 120.659 87.1107 119.344 87.4492 118.094C87.7878 116.844 88.3021 115.743 88.9922 114.793C89.6953 113.842 90.5872 113.087 91.668 112.527C92.7487 111.954 94.0312 111.668 95.5156 111.668C96.9219 111.668 98.1328 111.915 99.1484 112.41C100.164 112.905 100.997 113.576 101.648 114.422C102.312 115.255 102.801 116.238 103.113 117.371C103.426 118.491 103.582 119.682 103.582 120.945V122.566H90.5742C90.5872 123.465 90.6849 124.337 90.8672 125.184C91.0625 126.017 91.3685 126.759 91.7852 127.41C92.2018 128.048 92.7487 128.562 93.4258 128.953C94.1029 129.331 94.9427 129.52 95.9453 129.52C97.1432 129.52 98.224 129.37 99.1875 129.07C100.164 128.771 101.089 128.348 101.961 127.801L103.074 130.379ZM95.4375 114.52C94.8125 114.52 94.2266 114.617 93.6797 114.812C93.1458 114.995 92.6706 115.288 92.2539 115.691C91.8503 116.082 91.5117 116.583 91.2383 117.195C90.9779 117.794 90.8021 118.51 90.7109 119.344C90.6979 119.409 90.6914 119.5 90.6914 119.617C90.6914 119.734 90.6914 119.858 90.6914 119.988H99.7539C99.7279 119.272 99.6432 118.582 99.5 117.918C99.3568 117.254 99.1224 116.674 98.7969 116.18C98.4714 115.672 98.0352 115.268 97.4883 114.969C96.9414 114.669 96.2578 114.52 95.4375 114.52ZM108.152 127.684C108.543 127.983 108.973 128.25 109.441 128.484C109.91 128.706 110.398 128.895 110.906 129.051C111.414 129.207 111.928 129.324 112.449 129.402C112.983 129.48 113.497 129.52 113.992 129.52C114.526 129.52 115.034 129.461 115.516 129.344C115.997 129.227 116.414 129.044 116.766 128.797C117.13 128.549 117.417 128.243 117.625 127.879C117.846 127.501 117.957 127.065 117.957 126.57C117.957 126.219 117.892 125.906 117.762 125.633C117.632 125.346 117.404 125.073 117.078 124.812C116.766 124.552 116.329 124.298 115.77 124.051C115.223 123.79 114.533 123.504 113.699 123.191C112.775 122.853 111.928 122.514 111.16 122.176C110.405 121.837 109.754 121.453 109.207 121.023C108.673 120.581 108.257 120.06 107.957 119.461C107.658 118.849 107.508 118.107 107.508 117.234C107.508 116.297 107.703 115.477 108.094 114.773C108.484 114.07 109.005 113.491 109.656 113.035C110.32 112.579 111.082 112.241 111.941 112.02C112.801 111.785 113.693 111.668 114.617 111.668C115.789 111.668 116.961 111.844 118.133 112.195C119.318 112.547 120.398 113.074 121.375 113.777L120.184 116.277C119.754 116.004 119.305 115.763 118.836 115.555C118.367 115.333 117.892 115.151 117.41 115.008C116.928 114.852 116.453 114.734 115.984 114.656C115.529 114.565 115.099 114.52 114.695 114.52C114.188 114.52 113.706 114.572 113.25 114.676C112.807 114.78 112.417 114.936 112.078 115.145C111.753 115.34 111.492 115.594 111.297 115.906C111.102 116.206 111.004 116.551 111.004 116.941C111.004 117.306 111.095 117.638 111.277 117.938C111.46 118.237 111.72 118.517 112.059 118.777C112.41 119.025 112.833 119.266 113.328 119.5C113.836 119.734 114.409 119.962 115.047 120.184C116.232 120.613 117.241 121.036 118.074 121.453C118.908 121.87 119.585 122.312 120.105 122.781C120.626 123.25 121.004 123.771 121.238 124.344C121.473 124.904 121.59 125.555 121.59 126.297C121.59 127.339 121.362 128.243 120.906 129.012C120.464 129.78 119.878 130.411 119.148 130.906C118.419 131.401 117.586 131.766 116.648 132C115.711 132.247 114.747 132.371 113.758 132.371C112.508 132.371 111.329 132.208 110.223 131.883C109.129 131.544 108.055 131.023 107 130.32L108.152 127.684Z" fill="black"/>
</svg>
